<svg width="100" height="60" viewBox="0 0 100 60" fill="none" xmlns="http://www.w3.org/2000/svg">
<path d="M88 9C89.6569 9 91 7.65685 91 6C91 4.34315 89.6569 3 88 3C86.3431 3 85 4.34315 85 6C85 7.65685 86.3431 9 88 9Z" fill="#EBEEF2"/>
<path d="M10 29.9453H68.2329C75 30 88 30 88 13.5" stroke="#EBEEF2" stroke-width="4" stroke-linecap="round"/>
<path d="M27.5469 56H24.3125L13.6777 40.6016V56H10.4258V35.5215H13.6777L24.3125 50.9375V35.5215H27.5469V56ZM44.8262 47.2285H35.6855V56H32.4336V35.5215H46.2324V38.2109H35.6855V44.5391H44.8262V47.2285Z" fill="#D2D7DF"/>
<path class="o" d="M48 25C54.0751 25 59 20.0751 59 14C59 7.92487 54.0751 3 48 3C41.9249 3 37 7.92487 37 14C37 20.0751 41.9249 25 48 25Z" fill="#F94E1B"/>
<path class="o" d="M61 56C67.0751 56 72 51.0751 72 45C72 38.9249 67.0751 34 61 34C54.9249 34 50 38.9249 50 45C50 51.0751 54.9249 56 61 56Z" fill="#F94E1B"/>
<path d="M14.6445 4.52148L21.5176 20.5352L28.3555 4.52148H32.5918V25H29.3574V17.9512L29.6914 8.58203L22.6953 25H20.3047L13.3262 8.65234L13.6602 17.9512V25H10.4258V4.52148H14.6445ZM71.2812 19.8672L71.7207 21.5195L72.1777 19.9023L77.8027 4.52148H81.2832L73.25 25H70.209L62.1758 4.52148H65.6738L71.2812 19.8672Z" fill="#D2D7DF"/>
</svg>
