<svg width="26" height="24" viewBox="0 0 26 24" fill="none" xmlns="http://www.w3.org/2000/svg">
<path d="M11.9981 0.931215C12.2972 0.00942087 13.6013 0.00942063 13.9005 0.931215L16.0883 7.6734C16.2221 8.08561 16.6061 8.36475 17.0395 8.36475H24.1222C25.0906 8.36475 25.4936 9.6037 24.7105 10.1734L18.9782 14.3435C18.6282 14.5982 18.4817 15.0491 18.6153 15.4609L20.8043 22.2067C21.1034 23.1282 20.0483 23.8939 19.2649 23.324L13.5376 19.1575C13.1869 18.9023 12.7117 18.9023 12.361 19.1575L6.63373 23.324C5.85027 23.8939 4.79524 23.1282 5.09427 22.2067L7.28328 15.4609C7.41688 15.0491 7.27042 14.5982 6.92039 14.3435L1.18812 10.1734C0.405013 9.6037 0.807996 8.36475 1.7764 8.36475H8.85912C9.29249 8.36475 9.67653 8.08561 9.81029 7.6734L11.9981 0.931215Z" fill="#F94E1B"/>
</svg>
